<svg xmlns="http://www.w3.org/2000/svg" version="1.1" xmlns:xlink="http://www.w3.org/1999/xlink" xmlns:svgjs="http://svgjs.dev/svgjs" width="2000" height="636" viewBox="0 0 2000 636"><g transform="matrix(1,0,0,1,-1.2121212121212466,-0.6523917643615391)"><svg viewBox="0 0 396 126" data-background-color="#ffffff" preserveAspectRatio="xMidYMid meet" height="636" width="2000" xmlns="http://www.w3.org/2000/svg" xmlns:xlink="http://www.w3.org/1999/xlink"><g id="tight-bounds" transform="matrix(1,0,0,1,0.2400000000000091,0.1292474250150235)"><svg viewBox="0 0 395.52 125.74150514996992" height="125.74150514996992" width="395.52"><g><svg viewBox="0 0 395.52 125.74150514996992" height="125.74150514996992" width="395.52"><g transform="matrix(1,0,0,1,0,91.90559620343737)"><svg viewBox="0 0 395.52 33.83590894653256" height="33.83590894653256" width="395.52"><g id="textblocktransform"><svg viewBox="0 0 395.52 33.83590894653256" height="33.83590894653256" width="395.52" id="textblock"><g><svg viewBox="0 0 395.52 33.83590894653256" height="33.83590894653256" width="395.52"><g transform="matrix(1,0,0,1,0,0)"><svg width="395.52" viewBox="3 -39.65 472.2 40.4" height="33.83590894653256" data-palette-color="#ee3e38"><path d="M3-34.55L20.15-34.55 19.5-29.8 9.35-29.8 9.35-19.9 18.2-19.9 18.2-15.2 9.35-15.2 9.35-4.8 20.15-4.8 20.15 0 3 0 3-34.55ZM34-27.15Q36.15-27.15 37.9-26.43 39.65-25.7 41.25-24.15L41.25-24.15 38.6-20.65Q37.5-21.55 36.52-21.98 35.55-22.4 34.4-22.4L34.4-22.4Q32.15-22.4 31-20.28 29.85-18.15 29.85-13.1L29.85-13.1Q29.85-8.2 31.02-6.2 32.2-4.2 34.4-4.2L34.4-4.2Q35.5-4.2 36.4-4.6 37.3-5 38.5-5.85L38.5-5.85 41.25-2.3Q38.05 0.75 34.1 0.75L34.1 0.75Q29 0.75 26.17-2.73 23.35-6.2 23.35-13L23.35-13Q23.35-17.4 24.65-20.6 25.95-23.8 28.37-25.48 30.8-27.15 34-27.15L34-27.15ZM56.65-27.15Q59.5-27.15 61.15-25.1 62.8-23.05 62.8-19.6L62.8-19.6 62.8 0 56.65 0 56.65-18.9Q56.65-20.8 56.12-21.63 55.6-22.45 54.6-22.45L54.6-22.45Q52.5-22.45 50.45-18.5L50.45-18.5 50.45 0 44.3 0 44.3-37 50.45-37.65 50.45-23.3Q51.7-25.25 53.17-26.2 54.65-27.15 56.65-27.15L56.65-27.15ZM77.74-27.15Q82.74-27.15 85.52-23.65 88.29-20.15 88.29-13.25L88.29-13.25Q88.29-6.65 85.49-2.95 82.69 0.75 77.74 0.75L77.74 0.75Q72.79 0.75 69.99-2.88 67.19-6.5 67.19-13.25L67.19-13.25Q67.19-19.95 69.99-23.55 72.79-27.15 77.74-27.15L77.74-27.15ZM77.74-22.5Q75.59-22.5 74.59-20.38 73.59-18.25 73.59-13.25L73.59-13.25Q73.59-8.2 74.59-6.08 75.59-3.95 77.74-3.95L77.74-3.95Q79.89-3.95 80.89-6.08 81.89-8.2 81.89-13.25L81.89-13.25Q81.89-18.3 80.89-20.4 79.89-22.5 77.74-22.5L77.74-22.5ZM92.99-34.55L110.14-34.55 109.49-29.8 99.34-29.8 99.34-19.9 108.19-19.9 108.19-15.2 99.34-15.2 99.34-4.8 110.14-4.8 110.14 0 92.99 0 92.99-34.55ZM121.84-27.15Q126.54-27.15 129.79-24.05L129.79-24.05 127.44-20.7Q126.04-21.7 124.79-22.2 123.54-22.7 122.24-22.7L122.24-22.7Q120.79-22.7 119.96-21.93 119.14-21.15 119.14-19.8L119.14-19.8Q119.14-18.45 120.06-17.63 120.99-16.8 123.79-15.7L123.79-15.7Q127.24-14.35 128.89-12.5 130.54-10.65 130.54-7.55L130.54-7.55Q130.54-3.7 127.84-1.48 125.14 0.75 120.99 0.75L120.99 0.75Q118.29 0.75 116.01-0.23 113.74-1.2 112.04-2.95L112.04-2.95 115.04-6.25Q117.84-3.8 120.74-3.8L120.74-3.8Q122.39-3.8 123.34-4.67 124.29-5.55 124.29-7.1L124.29-7.1Q124.29-8.25 123.89-8.97 123.49-9.7 122.49-10.33 121.49-10.95 119.49-11.7L119.49-11.7Q116.04-13.05 114.56-14.85 113.09-16.65 113.09-19.45L113.09-19.45Q113.09-22.8 115.46-24.98 117.84-27.15 121.84-27.15L121.84-27.15ZM141.74-27.15Q146.44-27.15 149.69-24.05L149.69-24.05 147.34-20.7Q145.94-21.7 144.69-22.2 143.44-22.7 142.14-22.7L142.14-22.7Q140.69-22.7 139.86-21.93 139.04-21.15 139.04-19.8L139.04-19.8Q139.04-18.45 139.96-17.63 140.89-16.8 143.69-15.7L143.69-15.7Q147.14-14.35 148.79-12.5 150.44-10.65 150.44-7.55L150.44-7.55Q150.44-3.7 147.74-1.48 145.04 0.75 140.89 0.75L140.89 0.75Q138.19 0.75 135.91-0.23 133.64-1.2 131.94-2.95L131.94-2.95 134.94-6.25Q137.74-3.8 140.64-3.8L140.64-3.8Q142.29-3.8 143.24-4.67 144.19-5.55 144.19-7.1L144.19-7.1Q144.19-8.25 143.79-8.97 143.39-9.7 142.39-10.33 141.39-10.95 139.39-11.7L139.39-11.7Q135.94-13.05 134.46-14.85 132.99-16.65 132.99-19.45L132.99-19.45Q132.99-22.8 135.36-24.98 137.74-27.15 141.74-27.15L141.74-27.15ZM173.13-13.85Q173.13-13.4 172.98-11.3L172.98-11.3 159.33-11.3Q159.53-7.2 160.76-5.58 161.98-3.95 164.23-3.95L164.23-3.95Q165.78-3.95 167.03-4.48 168.28-5 169.73-6.15L169.73-6.15 172.28-2.65Q168.78 0.75 163.88 0.75L163.88 0.75Q158.68 0.75 155.91-2.85 153.13-6.45 153.13-13L153.13-13Q153.13-19.55 155.78-23.35 158.43-27.15 163.28-27.15L163.28-27.15Q167.93-27.15 170.53-23.78 173.13-20.4 173.13-13.85L173.13-13.85ZM167.13-15.3L167.13-15.65Q167.13-19.4 166.23-21.13 165.33-22.85 163.33-22.85L163.33-22.85Q161.48-22.85 160.51-21.18 159.53-19.5 159.33-15.3L159.33-15.3 167.13-15.3ZM189.78-27.15Q192.63-27.15 194.28-25.1 195.93-23.05 195.93-19.6L195.93-19.6 195.93 0 189.78 0 189.78-18.9Q189.78-20.8 189.26-21.63 188.73-22.45 187.73-22.45L187.73-22.45Q185.63-22.45 183.58-18.5L183.58-18.5 183.58 0 177.43 0 177.43-26.45 182.78-26.45 183.23-23Q184.58-25.1 186.11-26.13 187.63-27.15 189.78-27.15L189.78-27.15ZM210.98-27.15Q213.13-27.15 214.88-26.43 216.63-25.7 218.23-24.15L218.23-24.15 215.58-20.65Q214.48-21.55 213.5-21.98 212.53-22.4 211.38-22.4L211.38-22.4Q209.13-22.4 207.98-20.28 206.83-18.15 206.83-13.1L206.83-13.1Q206.83-8.2 208-6.2 209.18-4.2 211.38-4.2L211.38-4.2Q212.48-4.2 213.38-4.6 214.28-5 215.48-5.85L215.48-5.85 218.23-2.3Q215.03 0.75 211.08 0.75L211.08 0.75Q205.98 0.75 203.15-2.73 200.33-6.2 200.33-13L200.33-13Q200.33-17.4 201.63-20.6 202.93-23.8 205.35-25.48 207.78-27.15 210.98-27.15L210.98-27.15ZM240.13-13.85Q240.13-13.4 239.98-11.3L239.98-11.3 226.33-11.3Q226.53-7.2 227.75-5.58 228.98-3.95 231.23-3.95L231.23-3.95Q232.78-3.95 234.03-4.48 235.28-5 236.73-6.15L236.73-6.15 239.28-2.65Q235.78 0.75 230.88 0.75L230.88 0.75Q225.68 0.75 222.9-2.85 220.13-6.45 220.13-13L220.13-13Q220.13-19.55 222.78-23.35 225.43-27.15 230.28-27.15L230.28-27.15Q234.93-27.15 237.53-23.78 240.13-20.4 240.13-13.85L240.13-13.85ZM234.13-15.3L234.13-15.65Q234.13-19.4 233.23-21.13 232.33-22.85 230.33-22.85L230.33-22.85Q228.48-22.85 227.5-21.18 226.53-19.5 226.33-15.3L226.33-15.3 234.13-15.3ZM280.47-34.55L282.67 0 276.62 0 276.02-14.6Q275.72-22.6 275.72-26L275.72-26 275.77-28.6 271.02-3.8 265.02-3.8 260.07-28.65Q260.12-27.15 260.12-24.05L260.12-24.05Q260.12-18.8 259.92-14.4L259.92-14.4 259.37 0 253.42 0 255.62-34.55 263.62-34.55 268.12-10.2 272.32-34.55 280.47-34.55ZM305.62-26.45L305.62 0 300.27 0 299.97-3.35Q298.72-1.3 297.17-0.28 295.62 0.75 293.57 0.75L293.57 0.75Q290.67 0.75 288.99-1.3 287.32-3.35 287.32-6.65L287.32-6.65 287.32-26.45 293.47-26.45 293.47-7Q293.47-3.9 295.57-3.9L295.57-3.9Q296.77-3.9 297.72-4.83 298.67-5.75 299.47-7.45L299.47-7.45 299.47-26.45 305.62-26.45ZM318.67-27.15Q323.37-27.15 326.62-24.05L326.62-24.05 324.27-20.7Q322.87-21.7 321.62-22.2 320.37-22.7 319.07-22.7L319.07-22.7Q317.62-22.7 316.79-21.93 315.97-21.15 315.97-19.8L315.97-19.8Q315.97-18.45 316.89-17.63 317.82-16.8 320.62-15.7L320.62-15.7Q324.07-14.35 325.72-12.5 327.37-10.65 327.37-7.55L327.37-7.55Q327.37-3.7 324.67-1.48 321.97 0.75 317.82 0.75L317.82 0.75Q315.12 0.75 312.84-0.23 310.57-1.2 308.87-2.95L308.87-2.95 311.87-6.25Q314.67-3.8 317.57-3.8L317.57-3.8Q319.22-3.8 320.17-4.67 321.12-5.55 321.12-7.1L321.12-7.1Q321.12-8.25 320.72-8.97 320.32-9.7 319.32-10.33 318.32-10.95 316.32-11.7L316.32-11.7Q312.87-13.05 311.39-14.85 309.92-16.65 309.92-19.45L309.92-19.45Q309.92-22.8 312.29-24.98 314.67-27.15 318.67-27.15L318.67-27.15ZM331.21-26.45L337.36-26.45 337.36 0 331.21 0 331.21-26.45ZM334.26-39.65Q335.91-39.65 336.94-38.6 337.96-37.55 337.96-35.9L337.96-35.9Q337.96-34.3 336.94-33.25 335.91-32.2 334.26-32.2L334.26-32.2Q332.61-32.2 331.59-33.25 330.56-34.3 330.56-35.9L330.56-35.9Q330.56-37.55 331.59-38.6 332.61-39.65 334.26-39.65L334.26-39.65ZM352.56-27.15Q354.71-27.15 356.46-26.43 358.21-25.7 359.81-24.15L359.81-24.15 357.16-20.65Q356.06-21.55 355.09-21.98 354.11-22.4 352.96-22.4L352.96-22.4Q350.71-22.4 349.56-20.28 348.41-18.15 348.41-13.1L348.41-13.1Q348.41-8.2 349.59-6.2 350.76-4.2 352.96-4.2L352.96-4.2Q354.06-4.2 354.96-4.6 355.86-5 357.06-5.85L357.06-5.85 359.81-2.3Q356.61 0.75 352.66 0.75L352.66 0.75Q347.56 0.75 344.74-2.73 341.91-6.2 341.91-13L341.91-13Q341.91-17.4 343.21-20.6 344.51-23.8 346.94-25.48 349.36-27.15 352.56-27.15L352.56-27.15ZM363.01-34.55L380.16-34.55 379.51-29.8 369.36-29.8 369.36-19.9 378.21-19.9 378.21-15.2 369.36-15.2 369.36-4.8 380.16-4.8 380.16 0 363.01 0 363.01-34.55ZM397.46-37.7L403.61-37.05 403.61 0 398.16 0 397.86-3.05Q395.51 0.75 391.81 0.75L391.81 0.75Q387.71 0.75 385.53-2.93 383.36-6.6 383.36-13.2L383.36-13.2Q383.36-17.4 384.48-20.58 385.61-23.75 387.61-25.45 389.61-27.15 392.21-27.15L392.21-27.15Q395.41-27.15 397.46-24.5L397.46-24.5 397.46-37.7ZM393.56-3.9Q394.71-3.9 395.63-4.7 396.56-5.5 397.46-7L397.46-7 397.46-19.85Q395.86-22.55 393.81-22.55L393.81-22.55Q389.76-22.55 389.76-13.25L389.76-13.25Q389.76-8.2 390.76-6.05 391.76-3.9 393.56-3.9L393.56-3.9ZM409.3-26.45L415.45-26.45 415.45 0 409.3 0 409.3-26.45ZM412.35-39.65Q414-39.65 415.03-38.6 416.05-37.55 416.05-35.9L416.05-35.9Q416.05-34.3 415.03-33.25 414-32.2 412.35-32.2L412.35-32.2Q410.7-32.2 409.68-33.25 408.65-34.3 408.65-35.9L408.65-35.9Q408.65-37.55 409.68-38.6 410.7-39.65 412.35-39.65L412.35-39.65ZM432.3-5L434.45-1.2Q432 0.75 428.7 0.75L428.7 0.75Q425.25 0.75 423.45-1.23 421.65-3.2 421.65-6.6L421.65-6.6 421.65-22 418.55-22 418.55-26.45 421.65-26.45 421.65-32.3 427.8-33.05 427.8-26.45 432.8-26.45 432.2-22 427.8-22 427.8-6.6Q427.8-4.2 429.85-4.2L429.85-4.2Q430.5-4.2 431-4.38 431.5-4.55 432.3-5L432.3-5ZM446.4-27.15Q451.4-27.15 454.17-23.65 456.95-20.15 456.95-13.25L456.95-13.25Q456.95-6.65 454.15-2.95 451.35 0.75 446.4 0.75L446.4 0.75Q441.45 0.75 438.65-2.88 435.85-6.5 435.85-13.25L435.85-13.25Q435.85-19.95 438.65-23.55 441.45-27.15 446.4-27.15L446.4-27.15ZM446.4-22.5Q444.25-22.5 443.25-20.38 442.25-18.25 442.25-13.25L442.25-13.25Q442.25-8.2 443.25-6.08 444.25-3.95 446.4-3.95L446.4-3.95Q448.55-3.95 449.55-6.08 450.55-8.2 450.55-13.25L450.55-13.25Q450.55-18.3 449.55-20.4 448.55-22.5 446.4-22.5L446.4-22.5ZM473.15-27.1Q474.3-27.1 475.2-26.75L475.2-26.75 474.2-20.85Q473.2-21.1 472.35-21.1L472.35-21.1Q470.45-21.1 469.35-19.45 468.25-17.8 467.65-14.55L467.65-14.55 467.65 0 461.5 0 461.5-26.45 466.85-26.45 467.3-21.85Q469.15-27.1 473.15-27.1L473.15-27.1Z" opacity="1" transform="matrix(1,0,0,1,0,0)" fill="#ee3e38" class="wordmark-text-0" data-fill-palette-color="primary" id="text-0"></path></svg></g></svg></g></svg></g></svg></g><g transform="matrix(1,0,0,1,159.79504793874293,0)"><svg viewBox="0 0 75.92990412251413 75.92990412251413" height="75.92990412251413" width="75.92990412251413"><g><svg></svg></g><g id="icon-0"><svg viewBox="0 0 75.92990412251413 75.92990412251413" height="75.92990412251413" width="75.92990412251413"><g><path d="M0 37.965c0-20.967 16.997-37.965 37.965-37.965 20.967 0 37.965 16.997 37.965 37.965 0 20.967-16.997 37.965-37.965 37.965-20.967 0-37.965-16.997-37.965-37.965zM37.965 72.879c19.282 0 34.914-15.631 34.914-34.914 0-19.282-15.631-34.914-34.914-34.914-19.282 0-34.914 15.631-34.914 34.914 0 19.282 15.631 34.914 34.914 34.914z" data-fill-palette-color="accent" fill="#ee3e38" stroke="transparent"></path><ellipse rx="37.58530254064449" ry="37.58530254064449" cx="37.964952061257065" cy="37.964952061257065" fill="#ee3e38" stroke="transparent" stroke-width="0" fill-opacity="1" data-fill-palette-color="accent"></ellipse></g><g transform="matrix(1,0,0,1,16.689154852955156,21.9192659799252)"><svg viewBox="0 0 42.55159441660382 32.09137216266373" height="32.09137216266373" width="42.55159441660382"><g><svg xmlns="http://www.w3.org/2000/svg" xmlns:xlink="http://www.w3.org/1999/xlink" version="1.1" x="0" y="0" viewBox="5.001129288679235 16.063797042730968 89.99903785475435 67.87507395848833" enable-background="new 0 0 100 100" xml:space="preserve" height="32.09137216266373" width="42.55159441660382" class="icon-dxe-0" data-fill-palette-color="quaternary" id="dxe-0"><path d="M28.48 39.783C29.109 39.936 29.495 40.569 29.342 41.198A39 39 0 0 0 28.711 44.378 1.171 1.171 0 1 1 26.395 44.019C26.57 42.888 26.795 41.753 27.064 40.645A1.174 1.174 0 0 1 28.48 39.783M35.21 72.409C39.35 66.026 41.641 58.403 41.641 50.356 41.641 42.402 39.313 34.754 35.181 28.351 35.381 28.069 35.578 27.784 35.784 27.51A1.171 1.171 0 0 0 33.91 26.103C33.861 26.168 33.815 26.237 33.767 26.303 30.858 22.365 27.227 18.983 23.007 16.413A1.17 1.17 0 1 0 21.789 18.415C22.47 18.83 23.135 19.268 23.783 19.726A1.17 1.17 0 0 0 23.186 19.999C22.326 20.749 21.487 21.549 20.694 22.378A1.171 1.171 0 1 0 22.386 23.999 37 37 0 0 1 24.725 21.765 1.17 1.17 0 0 0 25.115 20.723 36 36 0 0 1 32.354 28.348C32.225 28.547 32.09 28.743 31.965 28.944A1.172 1.172 0 0 0 32.959 30.735C33.239 30.735 33.513 30.631 33.728 30.443A38.33 38.33 0 0 1 39.297 50.357C39.297 57.579 37.343 64.435 33.793 70.262 33.755 70.199 33.712 70.137 33.674 70.074A1.172 1.172 0 0 0 31.667 71.284C31.896 71.663 32.136 72.037 32.378 72.41A36 36 0 0 1 22.608 81.783 1.172 1.172 0 0 0 23.881 83.749 38 38 0 0 0 25.826 82.4C25.893 82.484 25.968 82.563 26.06 82.629 26.517 82.956 26.982 83.273 27.443 83.57A1.17 1.17 0 1 0 28.717 81.603 35 35 0 0 1 27.702 80.917 38.4 38.4 0 0 0 33.846 74.372C34.032 74.485 34.241 74.552 34.456 74.552A1.173 1.173 0 0 0 35.405 72.692C35.339 72.6 35.276 72.502 35.21 72.409M29.287 59.283A39 39 0 0 1 28.691 56.198 1.17 1.17 0 0 0 27.357 55.215 1.17 1.17 0 0 0 26.374 56.548C26.541 57.647 26.753 58.747 27.007 59.822A1.171 1.171 0 1 0 29.287 59.283M29.551 67.264A1.172 1.172 0 1 0 31.683 66.293 38 38 0 0 1 30.5 63.383 1.17 1.17 0 1 0 28.294 64.174 41 41 0 0 0 29.551 67.264M31.305 32.465A1.173 1.173 0 0 0 29.746 33.027 41 41 0 0 0 28.417 36.201 1.172 1.172 0 0 0 30.616 37.012 38 38 0 0 1 31.866 34.023 1.17 1.17 0 0 0 31.305 32.465M47.529 32.465A1.173 1.173 0 0 0 45.97 33.027 40 40 0 0 0 44.642 36.202 1.171 1.171 0 1 0 46.84 37.012 38 38 0 0 1 48.09 34.023 1.17 1.17 0 0 0 47.529 32.465M45.775 67.265A1.172 1.172 0 1 0 47.907 66.294 38 38 0 0 1 46.724 63.384 1.171 1.171 0 1 0 44.518 64.175 41 41 0 0 0 45.775 67.265M45.511 59.284A39 39 0 0 1 44.915 56.198 1.17 1.17 0 1 0 42.599 56.548 41 41 0 0 0 43.231 59.822 1.171 1.171 0 0 0 45.511 59.284M51.434 72.409C55.575 66.026 57.866 58.403 57.866 50.356 57.866 42.402 55.537 34.753 51.405 28.35 51.604 28.069 51.801 27.784 52.008 27.51A1.172 1.172 0 0 0 50.134 26.103C50.085 26.168 50.039 26.237 49.99 26.303A38.4 38.4 0 0 0 43.509 19.459C43.589 19.476 43.67 19.488 43.752 19.488 43.978 19.488 44.205 19.423 44.406 19.287 44.85 18.988 45.308 18.694 45.767 18.415A1.17 1.17 0 1 0 44.548 16.413C44.059 16.711 43.57 17.024 43.096 17.344A1.17 1.17 0 0 0 42.691 18.806 37 37 0 0 0 39.23 16.413 1.171 1.171 0 1 0 38.012 18.415C38.775 18.879 39.514 19.374 40.235 19.894A1.16 1.16 0 0 0 39.41 20.179C38.55 20.929 37.712 21.729 36.918 22.558A1.173 1.173 0 0 0 38.611 24.179 36 36 0 0 1 40.95 21.946 1.17 1.17 0 0 0 41.288 20.684 36 36 0 0 1 48.579 28.349C48.45 28.548 48.315 28.745 48.19 28.945A1.172 1.172 0 0 0 49.184 30.736C49.464 30.736 49.738 30.632 49.954 30.443A38.33 38.33 0 0 1 55.524 50.358C55.524 57.58 53.57 64.437 50.02 70.264 49.981 70.201 49.939 70.139 49.901 70.076A1.172 1.172 0 0 0 47.894 71.285C48.123 71.664 48.363 72.038 48.605 72.411A36 36 0 0 1 38.835 81.784 1.171 1.171 0 1 0 40.109 83.75 38 38 0 0 0 41.968 82.463C42.048 82.595 42.155 82.714 42.288 82.809 42.74 83.132 43.205 83.449 43.671 83.75A1.17 1.17 0 0 0 45.291 83.404 1.17 1.17 0 0 0 44.945 81.784 36 36 0 0 1 43.814 81.014 38.4 38.4 0 0 0 50.074 74.373C50.26 74.487 50.469 74.553 50.684 74.553A1.171 1.171 0 0 0 51.632 72.694C51.563 72.601 51.5 72.503 51.434 72.409M25.946 48.638A42 42 0 0 0 25.944 52.024 1.17 1.17 0 0 0 27.114 53.149L27.161 53.148A1.17 1.17 0 0 0 28.285 51.931 39 39 0 0 1 28.287 48.735 1.172 1.172 0 0 0 25.946 48.638M27.527 19.309C27.753 19.309 27.981 19.244 28.182 19.108 28.621 18.811 29.079 18.518 29.542 18.236A1.17 1.17 0 1 0 28.323 16.235C27.829 16.535 27.34 16.849 26.87 17.166A1.171 1.171 0 0 0 27.527 19.309M13.327 67.085A1.173 1.173 0 0 0 14.879 67.666 1.17 1.17 0 0 0 15.459 66.114 38 38 0 0 1 14.276 63.204 1.172 1.172 0 0 0 12.07 63.994 41 41 0 0 0 13.327 67.085M19.045 72.315C23.147 65.951 25.417 58.363 25.417 50.356A40.65 40.65 0 0 0 18.895 28.257C19.114 27.945 19.333 27.633 19.56 27.33A1.171 1.171 0 0 0 17.686 25.923C17.615 26.018 17.547 26.119 17.477 26.215 14.579 22.314 10.972 18.963 6.782 16.413A1.17 1.17 0 1 0 5.564 18.415C9.724 20.947 13.274 24.322 16.071 28.262 15.963 28.43 15.848 28.595 15.743 28.765A1.17 1.17 0 0 0 16.736 30.555C16.986 30.555 17.226 30.467 17.429 30.318A38.3 38.3 0 0 1 23.075 50.356C23.075 57.54 21.14 64.362 17.625 70.168 17.569 70.076 17.508 69.986 17.452 69.894A1.172 1.172 0 0 0 15.445 71.103C15.693 71.514 15.953 71.921 16.216 72.325A36 36 0 0 1 6.386 81.782 1.171 1.171 0 1 0 7.66 83.748 38.3 38.3 0 0 0 17.714 74.25C17.877 74.33 18.055 74.372 18.236 74.372A1.172 1.172 0 0 0 19.184 72.513C19.136 72.448 19.092 72.381 19.045 72.315M23.315 80.073A1.17 1.17 0 0 0 24.105 78.036 35 35 0 0 1 21.884 75.821 1.17 1.17 0 0 0 20.228 75.751 1.173 1.173 0 0 0 20.158 77.407 39 39 0 0 0 22.524 79.766C22.75 79.972 23.033 80.073 23.315 80.073M86.435 24.54C86.744 24.54 87.051 24.419 87.282 24.179A36 36 0 0 1 89.621 21.945 1.17 1.17 0 1 0 88.082 20.179C87.22 20.93 86.382 21.731 85.589 22.558A1.172 1.172 0 0 0 86.435 24.54M10.841 40.466A41 41 0 0 0 10.172 43.841 1.172 1.172 0 1 0 12.489 44.199C12.654 43.133 12.866 42.063 13.12 41.019A1.172 1.172 0 0 0 10.841 40.466M9.722 48.459A43 43 0 0 0 9.72 51.843 1.17 1.17 0 0 0 10.89 52.969L10.936 52.968A1.17 1.17 0 0 0 12.061 51.751 40 40 0 0 1 12.063 48.555 1.17 1.17 0 0 0 10.94 47.336 1.165 1.165 0 0 0 9.722 48.459M13.062 59.104A38 38 0 0 1 12.466 56.019 1.171 1.171 0 1 0 10.15 56.369C10.316 57.465 10.528 58.566 10.782 59.643A1.171 1.171 0 1 0 13.062 59.104M15.082 32.286A1.173 1.173 0 0 0 13.523 32.848 40 40 0 0 0 12.194 36.023 1.172 1.172 0 0 0 14.393 36.834C14.766 35.824 15.186 34.818 15.643 33.845A1.17 1.17 0 0 0 15.082 32.286M39.539 80.252A1.17 1.17 0 0 0 40.33 78.216 36 36 0 0 1 38.108 76 1.171 1.171 0 0 0 36.383 77.586C37.137 78.406 37.933 79.2 38.749 79.945 38.974 80.151 39.257 80.252 39.539 80.252M79.977 32.465A1.174 1.174 0 0 0 78.418 33.027 40 40 0 0 0 77.09 36.201 1.17 1.17 0 1 0 79.288 37.012 38 38 0 0 1 80.539 34.023 1.17 1.17 0 0 0 79.977 32.465M43.289 40.646A40 40 0 0 0 42.62 44.021 1.172 1.172 0 1 0 44.937 44.379C45.102 43.314 45.313 42.244 45.567 41.199A1.171 1.171 0 1 0 43.289 40.646M77.958 59.283A39 39 0 0 1 77.362 56.198 1.17 1.17 0 1 0 75.045 56.548C75.211 57.646 75.424 58.747 75.678 59.822A1.171 1.171 0 1 0 77.958 59.283M84.454 27.51A1.171 1.171 0 1 0 82.581 26.103L82.503 26.212A38.5 38.5 0 0 0 76.202 19.487C76.427 19.487 76.652 19.422 76.852 19.287 77.298 18.986 77.755 18.693 78.211 18.415A1.171 1.171 0 1 0 76.994 16.413C76.507 16.709 76.017 17.023 75.542 17.344A1.17 1.17 0 0 0 75.053 18.561 37 37 0 0 0 71.677 16.234 1.172 1.172 0 0 0 70.459 18.236 35 35 0 0 1 73.021 19.963 1.16 1.16 0 0 0 71.857 20.178 38 38 0 0 0 69.365 22.557 1.172 1.172 0 0 0 71.058 24.178 36 36 0 0 1 73.398 21.944 1.167 1.167 0 0 0 73.57 20.375 36 36 0 0 1 81.088 28.256C80.939 28.485 80.783 28.712 80.639 28.944A1.171 1.171 0 0 0 81.632 30.735C81.944 30.735 82.246 30.606 82.47 30.376A38.34 38.34 0 0 1 87.972 50.178C87.972 57.438 85.998 64.329 82.412 70.176 82.391 70.141 82.368 70.109 82.348 70.073A1.17 1.17 0 1 0 80.342 71.283C80.551 71.63 80.772 71.971 80.992 72.312A35.9 35.9 0 0 1 71.283 81.602 1.172 1.172 0 1 0 72.557 83.569 39 39 0 0 0 74.351 82.329C74.432 82.514 74.559 82.682 74.736 82.808 75.189 83.131 75.655 83.448 76.12 83.748A1.17 1.17 0 1 0 77.393 81.782C76.973 81.51 76.554 81.223 76.143 80.931A38.4 38.4 0 0 0 82.435 74.314C82.639 74.466 82.883 74.551 83.132 74.551A1.171 1.171 0 0 0 84.081 72.692C83.994 72.571 83.911 72.444 83.825 72.322 88.003 65.921 90.315 58.261 90.315 50.176A40.66 40.66 0 0 0 83.916 28.264C84.093 28.013 84.27 27.757 84.454 27.51M78.223 67.264A1.17 1.17 0 1 0 80.354 66.293 38 38 0 0 1 79.171 63.383 1.17 1.17 0 1 0 76.966 64.174 41 41 0 0 0 78.223 67.264M93.614 81.782A36 36 0 0 1 92.319 80.9 1.172 1.172 0 0 0 90.956 82.806C91.407 83.128 91.872 83.445 92.339 83.747A1.17 1.17 0 1 0 93.614 81.782M75.736 40.646A41 41 0 0 0 75.067 44.02 1.171 1.171 0 1 0 77.383 44.379C77.548 43.315 77.76 42.244 78.014 41.198A1.172 1.172 0 1 0 75.736 40.646M94.829 16.806A1.17 1.17 0 0 0 93.219 16.414C92.734 16.709 92.245 17.023 91.767 17.345A1.171 1.171 0 1 0 93.078 19.287C93.525 18.985 93.983 18.692 94.438 18.415A1.17 1.17 0 0 0 94.829 16.806M74.617 48.639A43 43 0 0 0 74.615 52.023 1.17 1.17 0 0 0 75.785 53.149L75.831 53.148A1.17 1.17 0 0 0 76.956 51.932 40 40 0 0 1 76.958 48.735 1.173 1.173 0 0 0 75.835 47.516 1.18 1.18 0 0 0 74.617 48.639M86.78 76.001A1.17 1.17 0 1 0 85.055 77.586C85.806 78.402 86.601 79.196 87.421 79.945 87.646 80.151 87.929 80.252 88.211 80.252A1.171 1.171 0 0 0 89.002 78.216 36 36 0 0 1 86.78 76.001M55.763 80.253A1.172 1.172 0 0 0 56.554 78.216 36 36 0 0 1 54.333 76.001 1.17 1.17 0 0 0 52.678 75.931 1.17 1.17 0 0 0 52.608 77.586C53.358 78.402 54.154 79.196 54.973 79.946 55.198 80.151 55.48 80.253 55.763 80.253M67.657 72.409C71.798 66.026 74.089 58.403 74.089 50.356 74.089 42.402 71.761 34.754 67.628 28.351 67.827 28.069 68.024 27.784 68.231 27.509A1.17 1.17 0 1 0 66.358 26.102C66.308 26.167 66.262 26.237 66.213 26.303A38.4 38.4 0 0 0 59.732 19.458C59.811 19.475 59.892 19.487 59.974 19.487 60.2 19.487 60.427 19.422 60.628 19.286A36 36 0 0 1 61.988 18.414 1.17 1.17 0 1 0 60.77 16.412C60.281 16.71 59.792 17.023 59.318 17.343A1.17 1.17 0 0 0 58.913 18.804 37 37 0 0 0 55.453 16.411 1.17 1.17 0 1 0 54.235 18.413C54.998 18.877 55.737 19.372 56.458 19.891A1.16 1.16 0 0 0 55.635 20.176 38 38 0 0 0 53.143 22.555 1.172 1.172 0 0 0 54.836 24.176 36 36 0 0 1 57.176 21.942C57.545 21.621 57.662 21.119 57.515 20.683A36 36 0 0 1 64.804 28.347C64.675 28.546 64.54 28.742 64.416 28.942A1.171 1.171 0 0 0 65.409 30.733C65.689 30.733 65.963 30.629 66.178 30.441A38.33 38.33 0 0 1 71.748 50.355C71.748 57.577 69.794 64.434 66.243 70.26 66.205 70.198 66.163 70.136 66.124 70.072A1.172 1.172 0 0 0 64.118 71.281C64.347 71.66 64.588 72.034 64.829 72.407A35.9 35.9 0 0 1 55.059 81.78 1.173 1.173 0 0 0 55.697 83.934C55.916 83.934 56.136 83.873 56.333 83.746A38 38 0 0 0 58.191 82.46C58.272 82.592 58.379 82.71 58.512 82.806 58.97 83.132 59.436 83.449 59.896 83.746A1.17 1.17 0 1 0 61.169 81.78 34 34 0 0 1 60.036 81.011 38.4 38.4 0 0 0 66.298 74.369C66.484 74.483 66.693 74.549 66.908 74.549A1.171 1.171 0 0 0 67.856 72.69C67.787 72.601 67.724 72.503 67.657 72.409M61.999 67.265A1.171 1.171 0 1 0 64.13 66.293 38 38 0 0 1 62.947 63.383 1.17 1.17 0 1 0 60.742 64.175 41 41 0 0 0 61.999 67.265M42.17 48.639A43 43 0 0 0 42.167 52.024 1.17 1.17 0 0 0 43.337 53.149L43.384 53.148A1.17 1.17 0 0 0 44.508 51.931 39 39 0 0 1 44.51 48.735 1.173 1.173 0 0 0 43.387 47.516 1.174 1.174 0 0 0 42.17 48.639M58.394 48.638A42 42 0 0 0 58.392 52.024 1.17 1.17 0 0 0 59.562 53.149L59.61 53.148A1.17 1.17 0 0 0 60.734 51.931 39 39 0 0 1 60.736 48.735 1.173 1.173 0 0 0 58.394 48.638M59.513 40.646A41 41 0 0 0 58.844 44.02 1.171 1.171 0 1 0 61.16 44.379C61.325 43.315 61.537 42.244 61.791 41.198A1.173 1.173 0 0 0 59.513 40.646M61.734 59.283A38 38 0 0 1 61.138 56.198 1.17 1.17 0 1 0 58.821 56.548 40 40 0 0 0 59.454 59.822 1.17 1.17 0 1 0 61.734 59.283M71.986 80.253A1.172 1.172 0 0 0 72.777 78.216 36 36 0 0 1 70.555 76.001 1.17 1.17 0 0 0 68.901 75.931 1.17 1.17 0 0 0 68.831 77.586C69.581 78.402 70.377 79.196 71.196 79.946 71.422 80.151 71.704 80.253 71.986 80.253M63.752 32.465A1.175 1.175 0 0 0 62.193 33.027 41 41 0 0 0 60.865 36.201 1.172 1.172 0 0 0 63.064 37.012 38 38 0 0 1 64.315 34.023 1.17 1.17 0 0 0 63.752 32.465" fill="#ffffff" data-fill-palette-color="quaternary"></path></svg></g></svg></g></svg></g></svg></g><g></g></svg></g><defs></defs></svg><rect width="395.52" height="125.74150514996992" fill="none" stroke="none" visibility="hidden"></rect></g></svg></g></svg>